<?xml version="1.0" standalone="no"?>
<!DOCTYPE svg PUBLIC "-//W3C//DTD SVG 20010904//EN"
 "http://www.w3.org/TR/2001/REC-SVG-20010904/DTD/svg10.dtd">
<svg version="1.0" xmlns="http://www.w3.org/2000/svg"
 width="1024.000000pt" height="1024.000000pt" viewBox="0 0 1024.000000 1024.000000"
 preserveAspectRatio="xMidYMid meet">

<g transform="translate(0.000000,1024.000000) scale(0.100000,-0.100000)"
fill="#000000" stroke="none">
<path d="M7010 9090 c-8 -5 -35 -18 -60 -30 -25 -12 -47 -25 -50 -29 -3 -4
-30 -21 -61 -38 -95 -53 -214 -190 -291 -334 -55 -102 -122 -337 -148 -521
-24 -162 1 -452 46 -540 8 -16 12 -28 9 -28 -3 0 2 -15 12 -32 9 -18 27 -56
39 -85 24 -58 141 -192 221 -253 28 -22 85 -56 126 -77 42 -20 74 -40 71 -44
-2 -4 -22 -63 -43 -131 -22 -67 -47 -143 -57 -168 -9 -25 -38 -106 -64 -180
-50 -139 -97 -268 -130 -355 -10 -27 -35 -97 -56 -155 -21 -58 -42 -116 -47
-130 -22 -56 -58 -157 -68 -190 -6 -19 -22 -58 -36 -87 -13 -28 -26 -60 -28
-70 -2 -10 -4 -19 -5 -20 -2 -2 -3 -6 -4 -10 -30 -114 -56 -155 -56 -90 0 29
-14 87 -65 272 -9 33 -21 64 -26 70 -5 5 -9 16 -9 25 -1 13 -24 63 -85 180
-10 19 -31 50 -47 68 -15 18 -36 49 -47 70 -10 20 -37 51 -59 67 -23 17 -46
40 -53 53 -7 12 -26 31 -43 42 -17 11 -51 35 -76 54 -25 19 -76 54 -113 78
-38 23 -91 58 -119 76 -28 19 -54 30 -58 25 -14 -13 -70 -159 -70 -181 0 -10
-6 -32 -14 -48 -8 -16 -17 -40 -19 -54 -3 -14 -10 -43 -15 -65 -19 -70 -27
-156 -26 -280 0 -107 7 -216 14 -222 3 -4 5 -10 14 -63 5 -25 19 -67 31 -95
13 -27 30 -68 40 -90 9 -22 41 -83 72 -135 77 -129 198 -248 342 -335 56 -33
67 -37 90 -28 14 6 59 25 100 42 41 17 76 30 78 28 3 -4 -15 -53 -42 -113 -8
-16 -27 -59 -43 -95 -16 -35 -50 -109 -77 -164 -26 -55 -70 -147 -97 -205 -28
-58 -63 -131 -79 -163 -16 -32 -29 -61 -29 -66 0 -5 -20 -44 -44 -87 -23 -44
-46 -90 -50 -104 -8 -25 -32 -77 -177 -375 -40 -82 -100 -211 -133 -285 -34
-74 -71 -151 -82 -171 -12 -20 -25 -47 -29 -60 -4 -13 -28 -68 -53 -121 -36
-79 -48 -96 -58 -87 -8 6 -14 17 -14 23 0 6 -40 92 -90 191 -49 99 -90 183
-90 188 0 4 -17 44 -39 90 -21 45 -46 98 -54 117 -9 19 -25 51 -36 70 -11 19
-34 67 -51 105 -18 39 -43 95 -57 125 -13 30 -53 114 -88 185 -35 72 -75 157
-90 190 -55 120 -116 250 -127 270 -24 42 -98 195 -98 201 0 4 -17 46 -38 93
-87 194 -114 262 -108 268 3 4 27 -13 51 -37 42 -41 49 -44 109 -48 54 -4 74
0 121 22 79 36 160 99 232 181 54 62 113 139 113 149 0 2 20 39 44 82 114 204
144 407 106 724 -12 104 -66 315 -95 372 -8 17 -15 37 -15 44 0 23 -19 25 -41
5 -11 -10 -42 -30 -67 -43 -54 -26 -135 -79 -140 -90 -2 -5 -8 -8 -14 -8 -14
0 -98 -68 -185 -151 -120 -113 -261 -339 -288 -459 -1 -3 -6 -16 -12 -30 -28
-67 -63 -237 -63 -307 0 -2 -6 -3 -13 -3 -8 0 -25 35 -42 83 -15 45 -41 110
-56 145 -16 34 -35 86 -43 115 -7 28 -33 99 -56 157 -76 189 -82 204 -96 256
-8 28 -26 78 -40 110 -28 63 -70 178 -84 232 -4 18 -14 39 -20 47 -7 8 -9 15
-5 15 4 0 1 10 -7 23 -8 12 -22 49 -32 82 -9 33 -37 119 -60 191 l-43 130 31
18 c17 10 58 32 91 49 126 64 290 228 323 322 7 22 18 45 23 51 20 24 52 134
70 244 16 88 19 145 16 245 -5 138 -30 318 -52 371 -7 17 -16 51 -20 75 -4 24
-14 54 -22 66 -8 12 -14 25 -13 28 9 29 -117 235 -190 312 -93 97 -159 147
-269 205 -49 26 -55 27 -71 13 -10 -9 -23 -37 -30 -63 -6 -26 -22 -69 -35 -97
-13 -27 -31 -79 -40 -115 -9 -36 -34 -103 -55 -150 -47 -105 -73 -165 -90
-210 -7 -19 -21 -46 -30 -60 -10 -14 -37 -64 -60 -112 -52 -107 -60 -115 -94
-93 -14 10 -26 21 -26 26 0 4 -33 36 -72 70 -40 34 -75 68 -78 75 -3 7 -23 27
-45 46 -62 52 -123 107 -195 178 -36 36 -75 72 -85 81 -11 9 -37 33 -57 55
-20 21 -71 70 -112 107 l-76 69 -22 -49 c-25 -55 -58 -162 -65 -213 -2 -19 -7
-42 -10 -50 -33 -81 -42 -477 -13 -599 6 -24 12 -55 15 -70 2 -14 15 -72 29
-129 27 -108 53 -172 103 -257 16 -28 34 -62 39 -76 8 -24 42 -67 116 -151 16
-17 28 -34 28 -39 0 -9 125 -99 137 -99 5 0 26 -12 48 -27 84 -57 149 -85 231
-98 16 -2 54 -9 84 -16 55 -11 220 -8 252 6 13 5 19 0 24 -22 4 -15 10 -32 14
-38 7 -9 35 -90 73 -210 8 -27 30 -88 47 -135 18 -47 43 -119 56 -160 13 -41
28 -84 33 -95 5 -11 21 -54 36 -95 15 -41 30 -84 34 -95 33 -82 51 -134 56
-160 4 -16 10 -39 15 -50 5 -11 16 -42 26 -70 10 -27 20 -54 24 -60 4 -5 12
-30 19 -54 7 -25 18 -56 24 -70 5 -14 12 -34 14 -44 2 -10 9 -28 15 -40 7 -12
13 -24 13 -27 4 -15 41 -102 56 -132 5 -10 9 -26 9 -35 1 -10 7 -35 14 -55 8
-21 11 -38 7 -38 -3 1 -37 30 -74 65 -38 35 -83 69 -100 76 -18 7 -48 25 -69
41 -20 16 -53 35 -73 43 -20 9 -64 29 -99 44 -34 16 -82 35 -107 42 -24 7 -48
16 -54 20 -10 7 -154 30 -305 48 -47 6 -157 14 -244 17 l-159 7 6 -54 c10 -82
17 -109 32 -140 8 -15 15 -33 15 -39 0 -6 11 -35 24 -63 13 -29 29 -69 35 -89
7 -21 17 -40 22 -43 5 -4 9 -13 9 -21 0 -28 131 -206 207 -282 106 -106 144
-133 264 -195 121 -61 146 -71 254 -93 116 -24 229 -32 320 -22 107 12 162 31
226 79 29 21 58 38 63 36 12 -4 81 -135 98 -187 6 -19 35 -82 64 -140 55 -112
114 -233 190 -395 26 -55 68 -145 94 -200 27 -55 60 -125 74 -155 14 -30 39
-77 54 -105 16 -27 35 -68 42 -90 7 -22 38 -89 69 -150 31 -60 65 -130 75
-155 18 -42 74 -163 166 -355 21 -44 48 -102 60 -130 12 -27 33 -74 47 -103
16 -33 22 -59 17 -70 -4 -9 -8 -19 -9 -22 -1 -3 -7 -18 -13 -33 -7 -16 -12
-34 -12 -40 0 -7 -8 -26 -19 -42 -10 -17 -24 -48 -31 -70 -7 -22 -24 -57 -37
-77 -12 -21 -23 -40 -23 -43 0 -2 -13 -33 -29 -67 -15 -35 -32 -74 -36 -88 -4
-14 -15 -36 -25 -50 -10 -14 -21 -36 -25 -50 -9 -28 -144 -320 -155 -335 -4
-5 -13 -28 -20 -50 -7 -21 -23 -60 -36 -85 -20 -41 -93 -196 -115 -245 -5 -11
-18 -35 -29 -54 -24 -38 -16 -55 27 -66 15 -3 61 -22 102 -42 42 -20 87 -39
101 -43 29 -8 29 -7 102 160 27 63 61 142 75 175 14 33 52 110 83 170 32 61
61 121 65 135 12 40 65 157 173 379 l55 115 38 -80 c21 -43 38 -85 38 -92 1
-6 21 -51 45 -100 47 -92 79 -162 90 -199 4 -12 29 -62 55 -111 27 -49 52 -99
56 -113 4 -13 24 -60 45 -104 20 -44 44 -96 53 -115 8 -19 33 -74 56 -122 23
-48 41 -92 41 -97 0 -19 21 -23 38 -8 19 18 135 72 172 82 14 3 34 13 44 20
19 15 19 16 -3 67 -54 124 -140 308 -187 401 -19 37 -34 72 -34 78 0 6 -27 66
-59 133 -32 66 -70 150 -84 186 -14 36 -39 92 -55 125 -16 33 -46 96 -66 140
-21 44 -48 100 -61 125 -12 25 -26 61 -30 80 -4 19 -14 45 -22 57 -21 31 -15
45 153 390 46 94 84 175 84 178 0 10 22 57 106 230 40 83 86 182 104 220 39
86 124 261 201 417 33 65 59 122 59 127 0 4 34 80 76 167 162 341 182 382 219
472 20 47 22 48 50 28 23 -15 164 -60 245 -77 99 -21 368 4 438 41 9 4 40 16
67 26 95 33 263 136 291 179 9 13 24 27 33 30 29 9 149 161 193 244 22 42 45
81 49 87 5 6 18 37 29 69 11 32 24 63 29 69 4 6 11 20 14 31 3 11 15 53 26 93
12 40 24 89 27 108 l6 37 -249 -6 c-249 -5 -279 -9 -503 -61 -31 -8 -197 -79
-250 -108 -97 -53 -194 -119 -223 -152 -21 -22 -27 -25 -22 -11 4 11 8 29 11
40 4 23 76 209 105 273 10 23 19 49 19 56 0 7 11 38 24 67 29 66 66 168 113
314 19 61 41 124 49 142 8 17 14 35 14 40 0 8 44 126 80 213 10 25 33 90 50
145 17 55 45 136 61 180 17 44 33 86 35 95 2 8 7 29 12 45 l9 30 114 -3 c173
-5 317 23 438 84 52 27 115 64 140 84 26 20 56 42 67 48 12 6 36 32 55 58 19
25 52 67 75 93 60 68 171 302 189 396 4 22 10 44 13 50 8 12 7 8 31 138 56
295 26 631 -75 854 -8 17 -14 38 -14 47 0 24 -13 19 -51 -20 -18 -20 -54 -50
-79 -67 -25 -17 -56 -45 -70 -61 -31 -38 -36 -43 -145 -141 -140 -126 -210
-192 -324 -307 -59 -60 -111 -108 -117 -108 -5 0 -20 22 -33 49 -13 27 -38 73
-57 101 -19 29 -37 64 -40 78 -6 26 -20 58 -84 197 -34 73 -85 200 -98 246 -6
19 -22 66 -37 104 -31 83 -30 80 -40 128 -8 42 -14 48 -35 37z"/>
<path d="M10080 80 l0 -80 80 0 80 0 0 80 0 80 -80 0 -80 0 0 -80z"/>
</g>
</svg>
