<?xml version="1.0" standalone="no"?>
<!DOCTYPE svg PUBLIC "-//W3C//DTD SVG 20010904//EN"
 "http://www.w3.org/TR/2001/REC-SVG-20010904/DTD/svg10.dtd">
<svg version="1.0" xmlns="http://www.w3.org/2000/svg"
 width="1024.000000pt" height="1024.000000pt" viewBox="0 0 1024.000000 1024.000000"
 preserveAspectRatio="xMidYMid meet">

<g transform="translate(0.000000,1024.000000) scale(0.100000,-0.100000)"
fill="#000000" stroke="none">
<path d="M5100 9110 c0 -264 -4 -480 -8 -480 -4 0 -24 21 -44 48 -20 26 -96
108 -168 182 -73 74 -148 155 -168 180 -69 87 -290 309 -308 310 -6 0 -22 -15
-34 -32 -12 -18 -42 -45 -65 -60 -39 -24 -105 -99 -105 -119 0 -10 83 -112
154 -189 140 -151 193 -210 225 -246 49 -57 238 -258 373 -398 l118 -121 0
-204 c0 -192 -1 -203 -17 -190 -29 20 -222 218 -283 289 -32 36 -85 94 -119
130 -35 36 -99 103 -143 150 -143 152 -242 250 -252 250 -12 0 -141 -121 -193
-182 -24 -28 -43 -58 -43 -68 0 -11 46 -68 103 -128 56 -60 138 -149 182 -197
109 -121 241 -261 356 -380 54 -55 112 -118 131 -140 18 -22 55 -62 81 -88 26
-27 79 -84 118 -127 l69 -79 0 -623 0 -624 -52 -13 c-29 -7 -95 -29 -146 -48
l-92 -34 -58 62 c-31 35 -82 88 -112 119 -30 31 -147 152 -260 270 -113 118
-234 245 -270 282 -98 101 -199 206 -262 273 -55 59 -56 62 -73 155 -9 52 -23
136 -30 185 -7 50 -25 164 -40 255 -14 91 -32 217 -40 280 -7 63 -21 158 -29
210 -9 52 -21 127 -27 165 -6 39 -15 90 -19 115 -5 25 -15 85 -21 134 -17 117
-26 126 -121 126 -98 0 -208 -17 -228 -35 -14 -13 -14 -26 2 -147 9 -73 22
-171 27 -218 6 -47 18 -125 26 -175 8 -49 21 -142 30 -205 8 -63 21 -149 28
-190 8 -41 18 -104 21 -140 l7 -65 -43 49 c-24 27 -50 60 -58 72 -21 31 -141
164 -253 281 -53 54 -110 117 -127 138 -17 22 -55 63 -83 91 -47 46 -141 147
-271 290 -33 37 -56 53 -79 57 -37 5 -47 -1 -136 -96 -63 -65 -64 -68 -50 -94
8 -15 41 -55 74 -90 33 -34 107 -115 165 -180 57 -65 126 -139 153 -165 27
-26 62 -65 79 -85 39 -51 130 -152 201 -224 31 -32 57 -63 57 -69 0 -6 -20 -8
-52 -5 -64 6 -417 22 -700 31 l-208 7 -2 -119 c-4 -170 -1 -226 13 -235 7 -4
96 -10 198 -14 102 -3 209 -8 236 -10 28 -2 160 -9 295 -15 135 -6 322 -15
415 -20 l170 -9 30 -37 c17 -21 63 -73 104 -116 l74 -78 -666 0 -667 0 0 -195
0 -195 831 0 832 0 66 -68 c36 -38 100 -106 141 -152 41 -45 107 -114 146
-154 38 -39 92 -99 119 -133 26 -35 51 -63 55 -63 4 0 24 -20 44 -44 l36 -44
-49 -79 c-64 -103 -90 -162 -113 -253 -10 -41 -22 -78 -26 -82 -9 -8 -1480
-31 -1493 -22 -6 3 -37 47 -71 97 -33 51 -72 106 -87 124 -14 17 -36 46 -49
65 -13 18 -55 76 -93 128 -39 52 -92 124 -117 159 -26 36 -67 90 -92 121 -47
59 -59 76 -86 125 -9 17 -36 52 -60 78 -24 27 -53 68 -65 93 -22 43 -23 44
-63 37 -63 -9 -159 -59 -199 -102 -20 -22 -44 -45 -54 -53 -10 -7 -24 -21 -32
-30 -14 -18 0 -40 98 -158 16 -19 54 -69 84 -110 31 -41 73 -97 94 -123 21
-27 52 -67 68 -91 17 -23 53 -71 81 -107 27 -35 67 -89 87 -121 20 -31 41 -58
45 -60 12 -5 52 -64 52 -77 0 -7 -47 -11 -147 -11 l-148 0 -112 123 c-61 67
-142 154 -178 192 -37 39 -90 95 -118 125 -212 229 -438 460 -450 460 -28 0
-246 -210 -247 -237 0 -7 8 -25 18 -40 15 -24 254 -273 527 -547 l80 -81 -428
-3 -428 -2 -9 -26 c-15 -40 -13 -237 3 -259 13 -17 34 -18 440 -13 235 3 427
3 427 1 0 -3 -39 -45 -87 -93 -106 -104 -388 -396 -423 -436 -14 -16 -39 -39
-56 -52 -17 -13 -40 -39 -50 -58 l-19 -35 60 -58 c33 -31 69 -69 80 -84 29
-39 89 -85 119 -93 22 -5 31 0 58 32 18 21 74 82 123 134 50 53 117 125 150
161 33 35 97 105 143 154 46 50 116 125 156 169 39 43 105 114 146 157 l76 79
158 5 159 6 -38 -48 c-21 -27 -51 -61 -66 -78 -15 -16 -36 -48 -48 -70 -12
-22 -44 -69 -71 -105 -28 -36 -66 -85 -85 -110 -19 -25 -65 -83 -101 -129 -37
-47 -74 -96 -83 -111 -9 -14 -46 -65 -83 -112 -38 -47 -68 -90 -68 -95 0 -13
127 -143 167 -171 24 -17 45 -22 91 -22 l61 0 43 57 c24 31 57 72 74 92 17 20
43 56 57 81 14 25 39 59 55 75 16 17 49 62 74 100 25 39 57 81 73 95 15 14 36
42 46 63 11 21 35 55 53 75 18 20 49 62 69 92 20 30 51 72 70 93 19 20 44 56
56 80 12 23 37 60 55 82 l34 40 745 3 c706 2 746 1 751 -15 3 -10 13 -54 22
-98 9 -44 22 -91 29 -105 7 -14 27 -54 44 -89 18 -35 45 -81 62 -103 39 -49
34 -71 -28 -121 -26 -21 -65 -62 -86 -90 -21 -29 -69 -83 -106 -122 -38 -38
-97 -101 -132 -140 -35 -38 -106 -114 -158 -168 l-96 -97 -817 0 -818 0 0
-186 0 -187 665 5 c366 3 665 4 665 3 0 -1 -16 -22 -35 -46 -19 -24 -35 -49
-35 -54 0 -6 -18 -29 -41 -50 -22 -22 -54 -58 -69 -81 l-29 -41 -223 -12
c-257 -14 -522 -28 -688 -36 -63 -3 -167 -10 -230 -15 -63 -6 -128 -11 -145
-13 l-30 -2 2 -140 c2 -77 5 -155 8 -172 8 -43 -54 -42 765 -3 102 4 187 7
189 5 4 -4 -23 -34 -132 -149 -38 -39 -85 -91 -105 -116 -20 -25 -64 -74 -98
-110 -34 -36 -93 -101 -131 -145 -39 -44 -94 -105 -123 -135 -28 -30 -64 -73
-78 -95 -14 -22 -35 -50 -46 -63 l-20 -22 40 -41 c21 -22 62 -56 91 -75 28
-18 53 -39 55 -46 3 -9 11 -8 30 4 28 18 234 236 323 341 32 37 61 67 66 67 4
0 33 30 65 68 75 88 184 210 262 292 35 37 75 83 89 103 14 21 30 37 34 37 4
0 17 16 29 35 12 19 25 35 29 35 4 0 -1 -53 -10 -117 -48 -308 -121 -944 -117
-1003 4 -53 46 -70 174 -70 56 0 115 5 132 11 38 13 48 42 62 184 6 55 15 114
20 130 5 17 14 93 20 170 6 77 17 178 25 225 8 47 17 112 20 145 3 33 10 85
16 115 11 61 31 214 59 452 18 155 18 157 58 210 22 29 73 85 113 125 41 39
99 99 129 134 30 34 89 96 130 138 41 42 93 98 115 126 22 27 141 152 265 278
l226 229 59 -25 c57 -24 167 -58 228 -71 l27 -6 0 -615 0 -615 -92 -97 c-51
-53 -113 -118 -138 -143 -25 -26 -76 -83 -115 -126 -38 -43 -92 -101 -119
-129 -27 -27 -62 -67 -77 -88 -15 -21 -49 -57 -75 -80 -26 -22 -69 -68 -96
-101 -28 -34 -78 -90 -112 -126 -141 -147 -226 -243 -226 -254 0 -19 237 -236
257 -236 5 0 68 62 139 137 71 75 149 158 174 184 48 49 153 164 267 289 37
41 98 106 135 143 38 37 68 72 68 77 0 6 5 10 10 10 6 0 10 -73 10 -198 l0
-198 -77 -82 c-43 -45 -121 -130 -173 -188 -52 -59 -130 -144 -174 -190 -43
-46 -85 -93 -94 -106 -9 -13 -74 -86 -146 -164 -72 -78 -146 -159 -163 -181
-18 -22 -36 -42 -39 -46 -8 -8 74 -102 135 -155 89 -76 85 -77 254 110 81 90
182 201 225 247 42 46 102 111 132 144 101 111 128 137 139 137 8 0 11 -129
11 -465 l0 -466 148 3 147 3 3 468 2 468 84 -88 c47 -48 98 -106 116 -128 17
-22 56 -65 86 -95 85 -86 178 -192 198 -225 10 -16 33 -41 51 -55 19 -14 51
-46 71 -72 20 -27 41 -48 47 -48 10 0 44 30 164 147 29 29 53 60 53 69 0 20
-23 48 -159 193 -58 62 -113 123 -121 135 -8 11 -38 44 -65 72 -28 27 -79 85
-115 128 -36 43 -94 106 -128 139 -35 34 -75 81 -89 104 -14 24 -37 50 -51 59
-15 9 -51 44 -79 79 l-53 62 1 204 c0 163 3 200 12 184 7 -11 42 -49 78 -85
36 -36 133 -138 215 -227 82 -89 163 -177 180 -195 16 -18 40 -42 52 -53 20
-17 113 -119 203 -220 15 -17 36 -38 48 -48 22 -17 23 -17 59 4 20 12 68 52
106 88 37 36 79 76 92 88 34 31 30 49 -23 103 -43 43 -105 108 -319 340 -38
41 -81 86 -95 100 -14 14 -50 52 -79 85 -29 33 -83 92 -119 131 -121 131 -239
258 -315 339 l-75 80 2 624 2 624 50 12 c28 7 68 20 90 29 67 30 135 47 148
39 7 -4 49 -48 94 -98 105 -114 125 -135 198 -205 33 -31 87 -88 120 -125 64
-71 172 -186 320 -339 129 -132 228 -238 245 -259 7 -10 17 -44 21 -75 4 -32
17 -120 29 -197 21 -140 34 -241 64 -515 9 -80 23 -190 31 -245 8 -55 22 -152
30 -215 19 -146 43 -307 51 -344 l6 -28 105 6 c57 4 114 11 126 15 12 5 43 11
70 15 l48 7 -6 52 c-3 29 -10 79 -15 112 -5 33 -12 101 -16 150 -4 50 -10 95
-14 100 -5 6 -11 42 -13 80 -3 39 -10 104 -16 145 -6 41 -18 136 -27 210 -9
74 -20 154 -25 177 -5 23 -9 63 -8 90 l0 48 32 -39 c18 -21 55 -64 83 -95 28
-31 55 -64 61 -74 5 -10 44 -55 86 -100 42 -45 102 -111 134 -146 32 -35 106
-113 166 -173 59 -60 107 -115 107 -122 0 -6 25 -32 55 -56 30 -25 57 -52 60
-61 3 -9 25 -37 49 -64 40 -43 46 -47 77 -40 21 5 59 33 109 80 41 39 82 74
90 77 16 5 -61 99 -150 184 -25 23 -108 114 -185 200 -77 87 -174 194 -217
239 -168 176 -211 225 -197 225 8 0 136 -6 284 -14 149 -8 358 -18 466 -21
l197 -7 16 23 c13 19 16 51 16 170 0 127 -2 148 -17 161 -14 12 -77 18 -313
28 -162 7 -374 16 -470 20 -96 5 -245 9 -330 9 -85 1 -164 4 -175 7 -11 4 -48
39 -82 78 -35 39 -81 92 -104 119 -23 26 -40 49 -37 52 2 2 304 7 671 11 l667
7 0 173 c0 95 -2 178 -5 186 -4 11 -147 13 -835 9 l-830 -3 -124 127 c-68 70
-150 158 -183 195 -32 37 -71 76 -86 86 -16 11 -35 30 -42 44 -7 14 -54 68
-104 120 l-90 95 24 30 c64 80 126 206 144 295 6 25 15 66 21 91 l11 47 747 7
c708 7 747 7 757 -10 5 -10 33 -45 60 -78 28 -32 58 -76 69 -96 10 -20 44 -65
75 -101 31 -36 69 -85 85 -110 30 -47 66 -93 126 -164 44 -52 80 -103 80 -114
0 -4 23 -35 51 -67 28 -33 60 -79 72 -102 12 -24 24 -43 28 -43 4 0 26 -26 49
-58 24 -31 44 -58 46 -60 1 -2 24 -5 51 -8 41 -4 53 -1 68 16 10 11 23 20 29
20 6 0 16 8 22 18 6 9 31 31 55 47 64 42 99 76 99 96 0 15 -77 122 -210 289
-32 41 -78 102 -102 135 -23 33 -61 80 -84 105 -23 25 -49 60 -59 79 -9 18
-34 52 -54 75 -40 43 -111 145 -111 158 0 5 72 8 160 8 137 0 160 -2 160 -15
0 -15 210 -244 402 -440 190 -193 364 -375 391 -409 16 -20 34 -36 40 -36 13
0 257 249 257 261 0 13 -84 103 -190 204 -52 50 -106 104 -120 120 -14 17 -92
97 -173 179 -81 83 -147 153 -147 158 0 4 179 8 399 8 219 0 419 3 445 6 l47
7 -3 136 -3 136 -437 -4 c-327 -3 -438 -1 -438 8 0 6 74 87 164 179 287 293
446 463 446 479 0 19 -16 47 -44 79 -13 14 -28 30 -33 35 -4 5 -42 41 -83 79
-71 67 -100 83 -100 59 0 -6 -33 -44 -72 -83 -90 -89 -219 -225 -358 -375
-371 -403 -373 -405 -393 -435 l-18 -26 -144 0 c-79 0 -146 4 -149 9 -3 5 3
20 14 34 11 14 20 29 20 34 0 5 18 27 41 48 22 22 49 56 59 75 10 19 50 74 89
122 39 48 85 110 102 138 17 28 38 56 47 63 10 6 34 37 54 67 20 30 52 71 71
90 19 19 52 61 73 94 21 32 43 64 48 71 11 14 -67 115 -88 115 -7 0 -30 17
-52 37 -99 95 -126 97 -205 13 -31 -32 -78 -90 -103 -127 -25 -37 -78 -111
-118 -164 -40 -54 -92 -124 -116 -156 -23 -33 -51 -68 -63 -79 -11 -10 -26
-32 -33 -49 -7 -17 -36 -58 -64 -92 -28 -33 -70 -90 -94 -125 -24 -35 -65 -94
-91 -130 l-49 -66 -591 -7 c-326 -3 -666 -5 -757 -3 l-164 3 -16 70 c-20 85
-88 222 -142 288 l-40 48 23 23 c13 13 56 59 94 102 39 43 108 119 155 169
112 119 341 364 358 381 11 12 133 14 681 14 367 0 743 3 835 7 l166 6 -2 181
-3 181 -663 0 c-364 0 -662 1 -662 2 0 10 83 117 120 154 25 25 54 58 65 72
l20 27 390 20 c440 23 688 38 820 48 l90 7 0 172 c-1 95 -4 175 -8 180 -7 6
-246 -5 -765 -38 -90 -6 -169 -9 -177 -7 -8 2 26 47 88 114 98 107 235 259
361 402 32 37 104 114 159 172 54 58 104 115 109 127 9 19 2 30 -64 96 -73 73
-105 97 -129 97 -7 0 -42 -30 -80 -67 -37 -38 -80 -79 -95 -93 -16 -14 -34
-35 -39 -47 -9 -20 -65 -81 -278 -303 -34 -36 -76 -85 -92 -109 -16 -24 -39
-50 -51 -58 -12 -7 -43 -42 -70 -76 -26 -34 -73 -91 -104 -127 -31 -36 -64
-76 -73 -90 -21 -30 -20 -34 -2 121 8 70 19 166 25 215 15 135 32 266 36 294
3 14 9 70 14 125 6 55 13 120 16 145 12 94 22 215 17 223 -2 4 -21 7 -41 7
-20 0 -62 7 -92 15 -30 8 -79 15 -109 15 -46 0 -57 -4 -80 -29 -27 -30 -26
-26 -70 -386 -7 -55 -17 -116 -22 -135 -5 -19 -16 -102 -25 -185 -31 -295 -39
-364 -69 -570 -4 -22 -13 -89 -21 -150 -12 -87 -20 -115 -37 -132 -12 -12 -60
-63 -107 -114 -47 -51 -116 -125 -155 -164 -102 -106 -216 -226 -250 -266 -16
-19 -88 -95 -160 -170 -71 -74 -175 -183 -230 -242 -55 -59 -106 -107 -115
-107 -8 0 -74 19 -146 42 l-131 42 -6 320 c-4 177 -7 452 -7 611 l0 290 47 55
c27 30 73 80 103 111 76 79 128 135 255 278 61 69 135 150 165 180 30 31 94
99 142 151 48 52 106 114 128 138 23 24 72 78 108 120 37 42 79 87 95 100 l27
24 -56 62 c-30 33 -89 91 -131 127 l-75 66 -91 -93 c-149 -151 -248 -255 -307
-324 -30 -36 -91 -103 -136 -150 -45 -47 -123 -130 -175 -185 l-94 -100 -3
209 c-3 242 -12 215 122 347 42 40 90 94 106 119 16 25 45 56 65 69 19 13 51
45 70 72 19 27 39 49 44 49 6 0 35 34 66 75 32 42 65 80 75 85 9 5 43 42 76
82 32 40 78 92 102 116 23 24 61 68 83 98 22 30 44 54 50 54 6 0 -19 32 -55
71 -71 77 -178 158 -184 140 -2 -6 -31 -40 -65 -75 -34 -35 -87 -92 -117 -126
-30 -34 -90 -99 -132 -143 -42 -45 -94 -103 -115 -129 -21 -25 -55 -64 -76
-85 -21 -21 -60 -64 -88 -96 l-49 -57 0 142 c0 79 -3 295 -7 481 l-6 337 -144
0 -143 0 0 -480z"/>
<path d="M10080 80 l0 -80 80 0 80 0 0 80 0 80 -80 0 -80 0 0 -80z"/>
</g>
</svg>
