<svg xmlns="http://www.w3.org/2000/svg" viewBox="0 0 32 32"><defs><style>.cls-1{fill:#a1d8df;}.cls-2{fill:#68c7d3;}.cls-3{fill:#d1e6e9;}.cls-4{fill:#30acc2;}</style></defs><title>Bee</title><g id="Bee"><polygon class="cls-1" points="27 6 25 6 24 4 25 2 27 2 28 4 27 6"/><polygon class="cls-2" points="27 14 25 14 24 12 25 10 27 10 28 12 27 14"/><polygon class="cls-3" points="27 10 25 10 24 8 25 6 27 6 28 8 27 10"/><polygon class="cls-2" points="30 8 28 8 27 6 28 4 30 4 31 6 30 8"/><polygon class="cls-2" points="24 8 22 8 21 6 22 4 24 4 25 6 24 8"/><polygon class="cls-1" points="30 12 28 12 27 10 28 8 30 8 31 10 30 12"/><polygon class="cls-1" points="24 12 22 12 21 10 22 8 24 8 25 10 24 12"/><path class="cls-3" d="M18,23.36c0,6.23-10,6.21-10,0,.05-1.26-.1,1.23.79-10.59a3,3,0,0,1,3-2.77h2.44a3,3,0,0,1,3,2.77C17.77,20.2,18,22.13,18,23.36Z"/><path class="cls-4" d="M13,31a3.42,3.42,0,0,1-1-2.41V28h2A3.88,3.88,0,0,1,13,31Z"/><path class="cls-4" d="M13,7H11V6.16A3.37,3.37,0,0,0,8.68,3l.64-1.9A5.39,5.39,0,0,1,13,6.16Z"/><path class="cls-4" d="M15,7H13V6.16a5.39,5.39,0,0,1,3.68-5.11L17.32,3A3.37,3.37,0,0,0,15,6.16Z"/><circle class="cls-2" cx="13" cy="8" r="4"/><path class="cls-1" d="M18,23.71a11.77,11.77,0,0,1-10,0,19.53,19.53,0,0,1,.11-2.19,9.83,9.83,0,0,0,9.76,0A19.64,19.64,0,0,1,18,23.71Z"/><path class="cls-1" d="M17.75,19.81a11.65,11.65,0,0,1-9.5,0l.16-2.13a9.81,9.81,0,0,0,9.18,0Z"/><path class="cls-1" d="M17.45,15.93a11.54,11.54,0,0,1-8.9,0l.16-2.1a9.79,9.79,0,0,0,8.58,0Z"/><path class="cls-2" d="M11.8,15.36l-3.72,6.7A3.78,3.78,0,0,1,1,20.22a4.74,4.74,0,0,1,1.71-3.64c2-1.68,3.91-3.58,7.7-3.58A1.58,1.58,0,0,1,11.8,15.36Z"/><path class="cls-2" d="M14.2,15.36l3.72,6.7A3.78,3.78,0,0,0,25,20.22a4.74,4.74,0,0,0-1.71-3.64c-2-1.68-3.91-3.58-7.7-3.58A1.58,1.58,0,0,0,14.2,15.36Z"/></g></svg>